<svg width="26" height="26" viewBox="0 0 26 26" fill="none" xmlns="http://www.w3.org/2000/svg">
<path d="M6.44 13.8H3C1.89543 13.8 1 14.6954 1 15.8V23C1 24.1046 1.89543 25 3 25H6.44M6.44 13.8L9.19763 2.76948C9.45761 1.72955 10.392 1 11.4639 1V1C12.7541 1 13.8 2.04589 13.8 3.33606V9.32H23.08V9.32C24.1404 9.32 25 10.1796 25 11.24V11.4C25 12.5488 24.0688 13.48 22.92 13.48H22.44H23.1324C24.011 13.48 24.7466 14.1457 24.834 15.0199V15.0199C24.9263 15.9433 24.2654 16.7718 23.3445 16.8869L22.44 17L22.6511 17.0176C23.617 17.0981 24.36 17.9055 24.36 18.8748V18.8748C24.36 19.8147 23.6601 20.6075 22.7275 20.7241L21.8 20.84L22.1094 20.8842C23.1935 21.0391 23.969 22.0121 23.878 23.1035V23.1035C23.7887 24.1754 22.8926 25 21.8169 25H20.52H6.44M6.44 13.8V25" stroke="#102B4E" stroke-width="2" stroke-linecap="round" stroke-linejoin="round"/>
</svg>
